<svg height="501pt" viewBox="0 0 501.63057 501" width="501pt" xmlns="http://www.w3.org/2000/svg"><path d="m422.53125 79.398438c-94.804688-94.804688-248.515625-94.804688-343.320312 0-94.804688 94.804687-94.804688 248.515624 0 343.320312 94.804687 94.804688 248.511718 94.804688 343.316406-.003906 94.808594-94.804688 94.808594-248.511719.003906-343.316406zm0 0" fill="#35b1fc"/><g fill="#ffefee"><path d="m295.414062 12.417969v477.28125c-14.441406 2.71875-29.339843 4.117187-44.539062 4.117187-15.203125 0-30.101562-1.398437-44.542969-4.117187v-477.28125c14.441407-2.71875 29.339844-4.121094 44.542969-4.121094 15.199219 0 30.097656 1.402344 44.539062 4.121094zm0 0"/><path d="m493.632812 251.058594c0 14.898437-1.359374 29.5-3.9375 43.679687h-477.640624c-2.582032-14.179687-3.941407-28.78125-3.941407-43.679687 0-15.519532 1.460938-30.679688 4.28125-45.402344h476.957031c2.820313 14.722656 4.28125 29.882812 4.28125 45.402344zm0 0"/><path d="m450.695312 113.359375-92.300781 92.296875-89.082031 89.082031-18.4375 18.441407-44.542969 44.539062-93.160156 93.160156c-24.617187-17-45.9375-38.441406-62.820313-63.140625l93-93 44.542969-44.539062 18.4375-18.441407 26.082031-26.101562 155.121094-155.117188c24.71875 16.859376 46.160156 38.199219 63.160156 62.820313zm0 0"/><path d="m451.394531 387.738281c-16.882812 24.699219-38.199219 46.140625-62.820312 63.140625l-337.519531-337.519531c17-24.621094 38.4375-45.960937 63.160156-62.820313l155.117187 155.117188 26.082031 26.101562 18.4375 18.441407 44.542969 44.539062zm0 0"/></g><path d="m412.867188 251.058594c0 89.464844-72.527344 161.992187-161.992188 161.992187-89.46875 0-161.996094-72.527343-161.996094-161.992187 0-89.46875 72.527344-161.996094 161.996094-161.996094 89.464844 0 161.992188 72.527344 161.992188 161.996094zm0 0" fill="#3193f3"/><path d="m265.875 412.359375c-4.941406.457031-9.941406.699219-15 .699219-89.460938 0-162-72.539063-162-162 0-89.460938 72.539062-162 162-162 5.058594 0 10.058594.238281 15 .699218-82.441406 7.558594-147 76.898438-147 161.300782 0 84.398437 64.558594 153.738281 147 161.300781zm0 0" fill="#35b1fc"/><path d="m412.875 251.058594c0 89.460937-72.542969 162-162 162-5.0625 0-10.0625-.242188-15-.699219 82.4375-7.5625 147-76.902344 147-161.300781 0-84.402344-64.5625-153.742188-147-161.300782 4.9375-.460937 9.9375-.699218 15-.699218 89.457031 0 162 72.539062 162 162zm0 0" fill="#307fed"/><path d="m166.535156 179.105469c8.230469-9.632813 17.949219-17.730469 28.878906-24.070313 3.820313-2.21875 5.125-7.113281 2.90625-10.933594-2.21875-3.824218-7.109374-5.128906-10.933593-2.910156-12.5 7.25-23.609375 16.507813-33.015625 27.519532-2.875 3.359374-2.476563 8.410156.882812 11.277343 3.367188 2.875 8.414063 2.46875 11.28125-.882812zm0 0" fill="#5f266d"/><path d="m136.832031 195.382812c-8.542969 17.433594-12.875 36.164063-12.875 55.671876 0 4.417968 3.582031 8 8 8s8-3.582032 8-8c0-17.046876 3.78125-33.410157 11.242188-48.632813 1.945312-3.964844.300781-8.757813-3.664063-10.703125-3.96875-1.941406-8.757812-.300781-10.703125 3.664062zm0 0" fill="#5f266d"/><path d="m230.90625 259.058594h39.9375c15.09375 0 27.375 12.277344 27.375 27.375 0 15.09375-12.28125 27.371094-27.375 27.371094h-53.25c-7.753906 0-14.058594-6.308594-14.058594-14.058594 0-4.417969-3.582031-8-8-8-4.417968 0-8 3.582031-8 8 0 16.574218 13.480469 30.058594 30.058594 30.058594h25.28125v29.65625c0 4.417968 3.582031 8 8 8s8-3.582032 8-8v-29.65625h11.96875c23.914062 0 43.375-19.457032 43.375-43.371094 0-23.917969-19.460938-43.375-43.375-43.375h-39.9375c-15.09375 0-27.375-12.28125-27.375-27.375s12.28125-27.375 27.375-27.375h53.25c7.753906 0 14.058594 6.308594 14.058594 14.0625 0 4.417968 3.582031 8 8 8 4.417968 0 8-3.582032 8-8 0-16.578125-13.484375-30.0625-30.058594-30.0625h-25.28125v-29.652344c0-4.417969-3.582031-8-8-8s-8 3.582031-8 8v29.65625h-11.96875c-23.917969 0-43.375 19.457031-43.375 43.375 0 23.914062 19.457031 43.371094 43.375 43.371094zm0 0" fill="#5f266d"/><path d="m497.214844 204.167969c-6.5-34.363281-19.9375-66.445313-39.9375-95.359375-17.0625-24.707032-39.140625-47.082032-65.222656-64.875-.003907 0-.007813-.003906-.011719-.007813-28.894531-19.773437-60.910157-33.023437-95.148438-39.375-30.042969-5.652343-62.070312-5.640625-92.019531-.003906h-.003906c-.007813 0-.011719.003906-.019532.003906 0 0 0 0-.003906 0-177.507812 32.953125-263.09375 238.769531-161.097656 387.699219 127.871094 187.109375 414.214844 120.964844 453.816406-96.082031 5.402344-29.707031 5.550782-61.183594-.351562-92zm-17.738282-6.511719h-67.183593c-2.753907-8.332031-6.179688-16.484375-10.226563-24.355469l47.351563-47.351562c14.066406 22.1875 24.144531 46.234375 30.058593 71.707031zm-39.261718-85.132812-46.429688 46.429687c-12.832031-19.871094-30.410156-37.847656-51.871094-51.484375l46.476563-46.476562c20.445313 14.789062 37.210937 31.578124 51.824219 51.53125zm-136.800782-90.265626c25.371094 5.792969 49.34375 15.714844 71.492188 29.59375l-47.425781 47.425782c-7.742188-3.910156-15.796875-7.230469-24.066407-9.921875zm-89.078124-3.097656c23.855468-3.78125 48.914062-3.816406 73.078124 0v65.832032c-23.261718-5.089844-48.496093-5.394532-73.078124 0zm26.964843 78.230469c78.414063-4.78125 145.585938 49.539063 160.496094 123.039063 19.699219 97.25-56.886719 188.53125-157.214844 184.460937-73.992187-2.957031-135.167969-58.613281-145.984375-130.875-13.417968-89.375 52.8125-171.074219 142.703125-176.625zm-42.964843-75.128906v67.09375c-8.273438 2.691406-16.328126 6.011719-24.066407 9.921875l-47.429687-47.425782c22.140625-13.875 46.113281-23.796874 71.496094-29.589843zm-84.980469 38.730469 46.476562 46.476562c-19.949219 12.6875-38.027343 30.046875-51.867187 51.484375l-46.429688-46.429687c15.089844-20.601563 31.980469-37.1875 51.820313-51.53125zm-61.023438 64.957031 47.351563 47.351562c-4.046875 7.867188-7.472656 16.019531-10.226563 24.355469h-67.1875c5.914063-25.46875 15.992188-49.515625 30.0625-71.707031zm-33.214843 87.707031h65.894531c-5.507813 24.496094-5.367188 49.746094-.378907 73.082031h-65.796874c-3.699219-24.269531-3.617188-49.015625.28125-73.082031zm2.746093 89.082031h67.027344c2.734375 8.5625 6.15625 16.910157 10.21875 24.929688l-47.445313 47.445312c-14.023437-22.375-24.015624-46.648437-29.800781-72.375zm38.949219 85.855469 46.492188-46.492188c12.691406 20 30.253906 38.1875 51.464843 51.867188l-46.429687 46.429688c-19.925782-14.601563-36.65625-31.289063-51.527344-51.804688zm137.523438 91.261719c-25.785157-5.882813-50.121094-16.03125-72.570313-30.253907l47.351563-47.351562c8.105468 4.167969 16.546874 7.6875 25.21875 10.511719zm89.078124 3.097656c-23.332031 3.6875-48.519531 3.875-73.078124 0v-65.832031c23.410156 5.148437 48.902343 5.292968 73.078124 0zm16-3.097656v-67.09375c8.667969-2.820313 17.109376-6.339844 25.21875-10.511719l47.351563 47.351562c-22.445313 14.222657-46.777344 24.367188-72.570313 30.253907zm85.992188-39.460938-46.429688-46.429687c20.65625-13.355469 38.324219-31.160156 51.46875-51.863282l46.488282 46.488282c-14.734375 20.332031-31.410156 37.0625-51.527344 51.804687zm60.675781-65.28125-47.445312-47.445312c4.066406-8.023438 7.488281-16.367188 10.21875-24.929688h67.03125c-5.785157 25.726563-15.777344 49.992188-29.804688 72.375zm32.828125-88.375h-65.792968c4.945312-23.160156 5.164062-48.335937-.382813-73.082031h65.898437c3.730469 22.976562 4.132813 47.925781.277344 73.082031zm0 0" fill="#5f266d"/></svg>